<?xml version="1.0" encoding="utf-8"?>
<!-- Generator: Adobe Illustrator 16.0.0, SVG Export Plug-In . SVG Version: 6.00 Build 0)  -->
<!DOCTYPE svg PUBLIC "-//W3C//DTD SVG 1.1//EN" "http://www.w3.org/Graphics/SVG/1.1/DTD/svg11.dtd">
<svg version="1.1"
	 id="svg2" xmlns:cc="http://creativecommons.org/ns#" xmlns:dc="http://purl.org/dc/elements/1.1/" xmlns:rdf="http://www.w3.org/1999/02/22-rdf-syntax-ns#"
	 xmlns="http://www.w3.org/2000/svg" xmlns:xlink="http://www.w3.org/1999/xlink" x="0px" y="0px" width="549.257px"
	 height="316.729px" viewBox="29.008 0 549.257 316.729" enable-background="new 29.008 0 549.257 316.729" xml:space="preserve">
<g id="layer1">
	<path id="path3381" fill="#9FD9A2" d="M265.064,306.24c-50.568-17.104-79.624-35.752-127.928-82.096
		c-53.392-51.225-55.448-59.44-22.888-91.424c18.643-18.317,21.372-23.73,20.89-41.43c-0.515-18.951-0.034-19.703,6.947-10.872
		c7.14,9.031,7.328,8.9,3.915-2.728c-1.972-6.718-6.93-17.321-11.017-23.564c-7.073-10.804-6.928-11.091,3.009-5.963
		c13.703,7.072,25.746,30.087,25.746,49.203c0,15.489-13.026,30.931-42.271,50.11c-28.993,19.016-27.765,24.92,13.746,66.04
		c122.16,121.017,268.256,125.024,394.68,10.831c28.762-25.98,35.179-34.344,32.163-41.92c-2.071-5.206-3.813-10.565-3.871-11.909
		c-0.057-1.344-1.801-4.642-3.876-7.328c-6.134-7.945-6.24-40.511-0.145-44.144c3.409-2.031-1.025-7.185-11.268-13.095
		c-24.608-14.201-39.687-28.783-39.687-38.38c0-10.643-31.45-37.581-48.766-41.772c-7.213-1.746-21.305-0.749-31.316,2.214
		s-19.084,4.537-20.161,3.498c-4.803-4.63,22.28-13.379,42.323-13.672c28.284-0.412,62.016,19.748,66.115,39.517
		c2.764,13.32,42.455,44.761,56.509,44.761c7.68,0,8.279,17.744,0.752,22.23c-3.258,1.941-4.029,8.492-1.903,16.167
		c1.966,7.097,4.399,17.3,5.409,22.674c1.009,5.375,3.198,15.452,4.865,22.395c5.591,23.28-76.614,86.36-150.951,115.824
		c-46.116,18.282-115.137,20.354-161.017,4.836L265.064,306.24z M308.916,293.494c-11.126-11.855-10.849-41.168,0.481-50.946
		c11.244-9.705,47.793-13.167,50.686-4.801c1.39,4.021-0.901,4.951-6.809,2.766c-6.866-2.541-8.158-1.424-5.648,4.883
		c4.034,10.137,0.166,10.476-9.809,0.857c-5.684-5.479-10.049-6.051-17.371-2.271c-19.887,10.262-6.522,59.024,14.086,51.398
		c4.049-1.498,8.243-2.724,9.32-2.724c1.078,0,0.648-3.298-0.956-7.328c-1.604-4.031-0.393-7.329,2.692-7.329
		c8.66,0,6.629,18.12-2.406,21.464C329.08,304.682,317.526,302.67,308.916,293.494L308.916,293.494z M272.664,286.396
		c-5.573-2.778-13.554-6.578-17.734-8.444c-10.644-4.752-12.649-23.757-2.889-27.368c4.375-1.619,7.956-6.977,7.956-11.904
		s2.632-10.529,5.85-12.446c3.801-2.266,4.466-1.328,1.899,2.678c-2.904,4.53-1.108,5.294,6.776,2.881
		c16.597-5.079,24.187,15.019,15.196,40.239C283.598,289.199,281.623,290.862,272.664,286.396L272.664,286.396z M283.696,260.899
		c1.177-19.191-2.072-28.258-8.708-24.303c-3.684,2.195-3.502,5.333,0.584,10.081c4.851,5.636,3.51,6.894-7.354,6.894
		c-9.506,0-13.287,2.548-13.287,8.956c0,11.991,5.073,16.176,17.525,14.456C279.987,275.944,283.041,271.573,283.696,260.899
		L283.696,260.899z M364.224,284.978c-9.449-9.111-10.408-27.095-1.881-35.316c9.854-9.502,23.479-6.757,32.521,6.552
		C411.315,280.426,385.062,305.073,364.224,284.978L364.224,284.978z M390.319,282.29c6.715-6.476,3.15-18.938-7.867-27.498
		c-10.935-8.495-16.341-7.62-12.504,2.022c2.176,5.467,1.294,6.974-2.691,4.598c-8.908-5.309-7.145,7.192,2.457,17.424
		C379.474,289.234,382.577,289.755,390.319,282.29L390.319,282.29z M408.459,276.777c2.423-6.227-19.556-47.588-28.232-53.132
		c-2.783-1.777-2.158-4.615,1.495-6.793c6.403-3.816,8.54-1.374,27.809,31.786c8.555,14.726,12.232,17.094,22.8,14.688
		c13.527-3.079,17.703-19.516,5.92-23.304c-3.717-1.194-5.979,0.792-5.101,4.479c0.867,3.644-0.687,7.291-3.455,8.104
		c-2.768,0.813-5.8-2.091-6.739-6.453c-1.043-4.847,2.566-9.011,9.275-10.703c7.675-1.936,10.237-5.515,8.51-11.886
		c-1.359-5.014,1.46-13.798,6.265-19.521c7.15-8.515,10.61-9.437,19.053-5.08c9.077,4.685,10.087,4.029,8.408-5.457
		c-1.248-7.053,3.913-17.127,14.929-29.136l16.837-18.356l10.634,13.471c8.548,10.828,11.921,12.279,17.194,7.396
		c5.346-4.948,4.475-8.794-4.703-20.764c-6.194-8.08-9.485-14.676-7.312-14.658c6.499,0.056,26.35,31.033,27.871,43.495
		c0.777,6.369-1.257,12.498-4.521,13.619c-3.711,1.274-4.975-1.504-3.372-7.413c2.137-7.88,0.446-9.062-10.164-7.105
		c-9.077,1.673-14.588-0.527-19.214-7.671c-6.365-9.828-6.75-9.732-20.441,5.055c-15.479,16.72-13.12,29.887,6.431,35.869
		c14.646,4.483,23.442-4.648,14.493-15.045c-6.347-7.375-7.326-7.369-12.979,0.085c-3.362,4.435-7.418,6.025-9.014,3.537
		c-1.595-2.489,1.212-8.113,6.238-12.499c8.511-7.428,9.912-7.18,20.427,3.613c10.668,10.95,10.811,12.05,2.593,19.975
		c-5.574,5.375-13.94,7.645-23.298,6.32c-11-1.557-13.927-0.373-11.868,4.801c4.995,12.554-7.109,26.888-20.605,24.4
		c-9.604-1.771-11.78-0.523-9.801,5.62c3.684,11.434-2.275,17.988-24.444,26.89C406.779,284.482,405.421,284.592,408.459,276.777
		L408.459,276.777z M477.94,231.493c5.227-6.072,4.736-9.179-2.698-17.101c-8.893-9.476-31.163-14.024-25.514-5.211
		c1.575,2.458,0.142,5.344-3.185,6.412c-3.919,1.26-2.147,5.706,5.035,12.632C464.687,240.865,469.374,241.446,477.94,231.493
		L477.94,231.493z M215.901,261.934c-3.35-3.257-9.747-8.87-14.215-12.476c-10.651-8.592-7.771-21.57,6.091-27.453
		c6.082-2.581,12.125-8.627,13.43-13.437c2.924-10.781,10.225-11.157,20.691-1.064c10.828,10.441,9.999,24.633-2.584,44.268
		C227.839,269.674,225.09,270.866,215.901,261.934L215.901,261.934z M232.977,245.863c1.687-4.239-0.55-11.195-4.971-15.459
		c-11.355-10.949-26.033,0.147-18.396,13.908C215.852,255.559,228.776,256.418,232.977,245.863L232.977,245.863z M244.714,225.477
		c-0.042-2.015-2.005-6.597-4.362-10.181c-3.492-5.312-4.818-5.174-7.173,0.744c-1.589,3.993-1.526,8.574,0.139,10.181
		C237.58,230.33,244.807,229.858,244.714,225.477L244.714,225.477z M150.826,217.149c-13.896-13.399-16.246-32.619-5.08-41.556
		c10.837-8.673,24.191-4.35,32.928,10.66c6.202,10.654,6.455,14.429,1.301,19.398c-4.729,4.561-8.675,4.785-15.125,0.861
		c-10.192-6.199-11.499-17.195-2.391-20.123c4.023-1.293,5.212,0.788,3.258,5.7c-1.693,4.255-0.555,7.736,2.53,7.736
		c8.246,0,6.826-12.485-2.246-19.746c-6.493-5.196-9.339-4.854-16.418,1.973c-7.785,7.507-7.859,9.47-0.818,21.566
		c5.71,9.81,11.69,13.308,22.752,13.308c14.868,0,15.02-0.279,16.515-30.535c1.294-26.207,2.87-30.536,11.113-30.536
		c5.282,0,13.154,4.886,17.491,10.858c9.852,13.563,9.97,18.456,0.446,18.456c-4.137,0-6.284-2.906-4.836-6.546
		c1.433-3.601-1.277-9.646-6.021-13.437c-7.966-6.363-8.418-5.109-5.909,16.408C205.087,222.506,177.175,242.556,150.826,217.149
		L150.826,217.149z M117.258,182.685c-4.99-4.812,53.94-58.718,59.878-54.775c3.822,2.538-4.069,12.904-23.258,30.554
		C124.536,185.452,121.921,187.182,117.258,182.685L117.258,182.685z M52.685,142.574c-0.302-11.885-2.256-15.039-8-12.913
		c-5.756,2.13-7.6-0.893-7.6-12.461c0-13.967,1.115-15.003,13.036-12.117c9.469,2.291,12.771,1.314,12.066-3.571
		C60.299,88.42,62.5,82.57,69.315,82.57c4.625,0,6.1,4.024,4.476,12.215c-2.815,14.2,1.81,15.488,14.828,4.128
		c8.652-7.55,9.266-7.5,9.266,0.751c0,4.86-8.788,16.743-19.529,26.407c-10.741,9.664-20.821,20.869-22.4,24.899
		S52.905,151.222,52.685,142.574L52.685,142.574z M65.17,144.863c1.339-3.359,10.958-10.504,21.375-15.878
		c12.548-6.475,19.533-13.821,20.696-21.771c2.315-15.818-8.519-50.147-14.669-46.481c-2.651,1.579-4.819-0.215-4.819-3.987
		c0-9.435,16.511-23.031,27.967-23.031c9.044,0,9.057,0.267,0.315,6.431c-8.741,6.163-8.751,7.562-0.252,33.56
		c12.506,38.259,8.124,50.139-24.018,65.091C61.331,152.952,62.008,152.797,65.17,144.863L65.17,144.863z M29.485,92.344
		c-1.722-2.688,1.698-4.886,7.6-4.886c5.902,0,9.322,2.198,7.6,4.886c-1.722,2.687-5.142,4.886-7.6,4.886
		C34.627,97.229,31.207,95.03,29.485,92.344z M32.018,77.645c0-2.833,3.42-6.417,7.6-7.964s7.681-7.523,7.779-13.282
		c0.288-16.795,12.984-34.362,25.892-35.824c6.561-0.743,19.037-2.694,27.725-4.337c10.195-1.927,21.591-0.096,32.137,5.163
		c19.198,9.573,17.837,14.823-1.961,7.564c-21.232-7.779-28.104-6.194-43.912,10.12c-10.068,10.396-15.343,13.075-16.83,8.551
		c-1.19-3.625-3.242-9.888-4.558-13.919c-1.316-4.03-4.056,1.938-6.088,13.266C57.34,60.721,52.1,70.11,44.062,75.188
		c-6.833,4.317-12.047,5.382-12.047,2.46L32.018,77.645z M60.668,65.268c3.318-8.34,12.661-7.313,15.789,1.732
		c1.114,3.223-2.618,5.802-8.391,5.802C60.779,72.802,58.566,70.549,60.668,65.268L60.668,65.268z"/>
	<path id="path3379" fill="#ECA95D" d="M280.896,309.696c-45.158-12.233-95.376-40.865-132.024-75.272
		c-18.833-17.682-22.318-21.823-7.746-9.203c70.071,60.684,130.152,84.288,206.264,81.041
		c71.567-3.056,123.616-26.763,193.752-88.249c24.728-21.679,29.226-27.887,24.325-33.58
		c-10.398-12.083-17.813-53.105-11.022-60.994c6.977-8.105,8.452-6.351-22.726-27.032c-16.775-11.128-26.527-21.793-30.407-33.258
		c-10.44-30.85-54.88-48.474-85.849-34.048c-10.689,4.979-10.732,4.896-1.231-2.443c14.644-11.313,48.879-9.603,69.216,3.459
		c9.469,6.082,21.45,19.388,26.626,29.568c6.568,12.923,17.657,22.999,36.733,33.381c28.375,15.441,32.776,23.034,19.509,33.652
		c-5.422,4.339-6.197,7.813-2.533,11.347c2.904,2.801,5.281,12.219,5.281,20.928c0,8.708,2.28,17.193,5.066,18.854
		c17.563,10.468-22.4,52.298-90.072,94.28c-62.255,38.62-143.704,53.683-203.167,37.573L280.896,309.696z M310.669,292.661
		c-11.703-11.285-13.226-33.141-3.229-46.325c7.285-9.606,53.895-15.926,53.895-7.308c0,2.458-3.42,3.203-7.6,1.656
		c-5.02-1.857-7.6,0.171-7.6,5.973c0,8.323-0.361,8.309-6.867-0.271c-8.609-11.352-21.584-7.17-29.457,9.494
		c-7.365,15.587,0.759,35.096,17.281,41.498c8.739,3.387,9.348,4.507,2.575,4.743C324.792,302.293,316.241,298.035,310.669,292.661
		L310.669,292.661z M343.929,291.228c1.902-4.818,4.734-7.529,6.295-6.025s0.004,5.446-3.459,8.761
		C341.761,298.754,341.179,298.192,343.929,291.228L343.929,291.228z M272.669,286.4c-5.574-2.778-13.554-6.578-17.734-8.444
		c-10.644-4.752-12.649-23.757-2.889-27.368c4.375-1.619,7.956-6.977,7.956-11.904s2.632-10.528,5.85-12.446
		c3.801-2.266,4.466-1.328,1.898,2.678c-2.903,4.53-1.107,5.294,6.776,2.881c16.597-5.079,24.187,15.019,15.196,40.239
		C283.603,289.203,281.628,290.866,272.669,286.4L272.669,286.4z M283.701,260.903c1.177-19.191-2.072-28.258-8.708-24.303
		c-3.684,2.195-3.502,5.333,0.584,10.081c4.851,5.636,3.51,6.894-7.354,6.894c-9.506,0-13.287,2.548-13.287,8.956
		c0,11.991,5.073,16.176,17.524,14.456C279.992,275.948,283.046,271.577,283.701,260.903L283.701,260.903z M364.229,284.982
		c-9.45-9.111-10.408-27.095-1.883-35.316c9.854-9.502,23.479-6.757,32.521,6.552C411.32,280.429,385.067,305.077,364.229,284.982
		L364.229,284.982z M390.324,282.294c6.716-6.476,3.149-18.938-7.867-27.498c-10.935-8.495-16.341-7.62-12.503,2.023
		c2.175,5.466,1.293,6.973-2.693,4.597c-8.907-5.309-7.145,7.192,2.458,17.424C379.479,289.238,382.582,289.759,390.324,282.294
		L390.324,282.294z M409.563,277.852c1.775-2.77-3.748-16.956-12.274-31.523c-8.526-14.568-13.687-27.571-11.467-28.895
		c2.22-1.322,10.728,9.558,18.907,24.179c8.18,14.622,16.011,26.578,17.404,26.571s8.803-3.167,16.466-7.021
		c7.664-3.855,13.934-4.992,13.934-2.527c0,2.466-9.548,8.931-21.218,14.367C406.985,284.339,405.144,284.749,409.563,277.852
		L409.563,277.852z M206.803,253.316c-12.396-11.713-14.165-15.931-9.616-22.928c3.066-4.716,10.346-9.262,16.177-10.101
		c6.863-0.988,9.609-4.021,7.786-8.603c-1.93-4.849,0.152-6.631,6.614-5.661c25.035,3.756,28.87,20.247,10.696,45.989
		c-6.27,8.881-12.54,16.037-13.934,15.901C223.133,267.78,215.158,261.211,206.803,253.316L206.803,253.316z M232.853,246.18
		c3.37-8.47-6.451-21.924-16.004-21.924c-9.242,0-13.789,14.704-6.988,22.605C217.503,255.742,229.186,255.395,232.853,246.18
		L232.853,246.18z M242.466,215.682c-2.771-6.962-3.988-7.153-7.789-1.224c-2.799,4.366-2.286,9.604,1.354,13.834
		C243.137,236.549,247.425,228.145,242.466,215.682L242.466,215.682z M422.13,245.785c0-4.282,4.743-8.982,10.541-10.444
		c7.274-1.834,9.775-5.484,8.07-11.774c-1.36-5.014,1.459-13.798,6.264-19.521c7.533-8.971,10.327-9.584,20.277-4.448
		c10.701,5.522,11.319,5.126,8.501-5.457l-3.04-11.412l5.917,11.1c6.779,12.717,27.705,19.556,35.839,11.713
		c8.5-8.196-5.247-22.358-14.509-14.946c-8.227,6.584-9.4-1.085-1.354-8.844c4.054-3.908,8.406-2.643,15.961,4.643
		c14.033,13.531,5.934,25.935-16.256,24.891c-12.327-0.579-15.449,0.943-13.254,6.461c5.088,12.786-6.804,27.271-20.339,24.775
		c-6.72-1.238-12.219,0.081-12.219,2.934c0,3.28-2.233,3.031-6.08-0.678c-8.495-8.191-15.85-7.319-12.354,1.466
		c1.776,4.464,0.008,7.328-4.525,7.328C425.479,253.57,422.13,250.066,422.13,245.785L422.13,245.785z M477.941,231.494
		c5.227-6.072,4.736-9.179-2.698-17.101c-8.893-9.476-31.163-14.024-25.515-5.211c1.576,2.458,0.143,5.344-3.184,6.412
		c-3.92,1.26-2.147,5.706,5.035,12.632C464.688,240.866,469.375,241.447,477.941,231.494L477.941,231.494z M151.422,216.574
		c-11.104-10.707-10.006-15.163,1.303-5.294c10.958,9.563,29.015,10.592,34.704,1.979c2.218-3.359,4.063-16.904,4.099-30.1
		c0.044-16.074,2.389-24.748,7.104-26.284c4.821-1.569,5.717-0.23,2.846,4.251c-2.306,3.598-3.584,16.091-2.839,27.762
		c0.744,11.672-1.386,24.402-4.733,28.292C185.843,226.548,161.404,226.199,151.422,216.574L151.422,216.574z M164.993,206.358
		c-3.483-1.355-6.069-7.228-5.746-13.049c0.496-8.921,0.967-9.17,2.996-1.583c1.646,6.153,5.561,8.208,12.369,6.492
		c8.141-2.054,8.869-1.243,3.984,4.432c-3.287,3.819-6.268,6.771-6.623,6.559S168.477,207.715,164.993,206.358L164.993,206.358z
		 M138.793,194.313c-0.22-4.373,3.59-10.969,8.466-14.656c7.705-5.827,8.125-5.745,3.214,0.623
		c-3.109,4.031-6.919,10.627-8.467,14.657C139.653,201.067,139.127,200.966,138.793,194.313z M102.28,186.386
		c-6.302-7.749-6.123-7.922,1.913-1.844c4.877,3.688,8.867,7.535,8.867,8.55C113.06,197.114,108.899,194.525,102.28,186.386
		L102.28,186.386z M171.652,181.712c-2.75-6.963-2.167-7.524,2.836-2.734c3.463,3.313,5.02,7.256,3.459,8.761
		C176.388,189.242,173.555,186.53,171.652,181.712L171.652,181.712z M542.02,181.157c2.127-7.84,0.437-9.06-9.913-7.151
		c-8.832,1.628-14.724-0.793-20.166-8.286c-4.779-6.579-8.962-8.601-11.051-5.341c-1.849,2.884-5.484,5.244-8.079,5.244
		s-0.825-4.384,3.933-9.742c8.573-9.656,8.75-9.623,19.839,3.664c8.954,10.729,12.472,12.193,17.612,7.333
		c5.175-4.893,4.233-8.93-4.84-20.764c-6.195-8.08-9.486-14.676-7.313-14.657c6.499,0.055,26.35,31.032,27.871,43.494
		c0.778,6.369-1.257,12.498-4.521,13.619c-3.71,1.274-4.974-1.504-3.371-7.413H542.02z M117.236,182.675
		c-4.989-4.812,53.94-58.718,59.878-54.775c3.822,2.538-4.069,12.904-23.258,30.554
		C124.514,185.441,121.898,187.172,117.236,182.675L117.236,182.675z M212.564,177.837c1.604-4.03,3.813-7.328,4.908-7.328
		s1.991,3.298,1.991,7.328c0,4.031-2.208,7.329-4.908,7.329S210.96,181.868,212.564,177.837z M92.86,166.661
		c-0.046-6.883,8.684-19.383,22.726-32.542c17.574-16.47,22.916-25.108,23.305-37.683c0.468-15.134,0.785-15.431,4.369-4.101
		c3.149,9.954,4.521,10.738,7.41,4.235c1.95-4.39-0.004-16.481-4.342-26.872l-7.888-18.892l10.17,11.61
		c23.251,26.544,16.625,51.396-20.358,76.364c-12.54,8.466-25.616,20.717-29.059,27.223l-6.259,11.831L92.86,166.661L92.86,166.661z
		 M52.254,138.469c0-8.326-2.157-10.827-7.6-8.813c-5.704,2.11-7.6-0.807-7.6-11.69c0-13.072,1.331-14.257,13.496-12.015
		c10.762,1.984,12.876,0.929,10.435-5.206c-1.684-4.231,0.223-10.322,4.237-13.535c6.038-4.832,7.298-3.628,7.298,6.972
		c0,14.729,8.483,16.708,18.28,4.263c6.394-8.122,6.739-8.113,6.892,0.182c0.088,4.804-10.1,18.349-22.639,30.101
		C53.873,148.577,52.253,149.268,52.254,138.469L52.254,138.469z M54.788,116.765c1.723-2.687-0.558-4.886-5.066-4.886
		s-6.789,2.199-5.067,4.886c1.723,2.688,4.002,4.886,5.067,4.886S53.065,119.453,54.788,116.765z M65.14,144.858
		c1.339-3.358,10.958-10.504,21.375-15.878c12.548-6.474,19.533-13.821,20.696-21.771c2.315-15.818-8.519-50.147-14.669-46.481
		c-2.651,1.58-4.819-0.215-4.819-3.987c0-9.435,16.511-23.031,27.967-23.031c9.044,0,9.057,0.268,0.315,6.431
		c-8.741,6.163-8.751,7.563-0.252,33.561c12.506,38.258,8.123,50.138-24.019,65.09C61.3,152.947,61.978,152.793,65.14,144.858
		L65.14,144.858z M29.454,92.331c-1.722-2.688,1.698-4.886,7.6-4.886s9.322,2.198,7.6,4.886c-1.722,2.687-5.143,4.886-7.6,4.886
		S31.176,95.017,29.454,92.331z M37.757,74.768c4.566-5.119,9.843-16.3,11.726-24.848c4.913-22.307,11.638-26.571,54.035-34.27
		c7.294-1.324,20.617,1.259,29.604,5.74c19.548,9.748,17.688,14.769-2.7,7.294c-19.04-6.985-35.6-2.499-45.712,12.384
		C75.39,54.78,67.501,52.965,67.386,37.081c-0.063-8.702-0.996-9.334-4.989-3.376c-2.702,4.03-4.947,13.122-4.989,20.202
		c-0.052,8.642-4.659,15.718-14.011,21.521c-13.626,8.454-13.75,8.438-5.631-0.66H37.757z M65.137,68.242
		c-3.46-5.399,4.532-11.23,9.21-6.719c4.817,4.646,3.919,11.268-1.527,11.268C70.198,72.791,66.741,70.744,65.137,68.242
		L65.137,68.242z"/>
	<path id="path3377" fill="#35C1E6" d="M280.896,309.696c-45.158-12.233-95.376-40.865-132.024-75.272
		c-18.833-17.682-22.318-21.823-7.746-9.203c70.071,60.684,130.152,84.288,206.264,81.041
		c71.567-3.056,123.616-26.763,193.752-88.249c24.728-21.679,29.226-27.887,24.325-33.58
		c-10.398-12.083-17.813-53.105-11.022-60.994c6.977-8.105,8.452-6.351-22.726-27.032c-16.775-11.128-26.527-21.793-30.407-33.258
		c-10.44-30.85-54.88-48.474-85.849-34.048c-10.689,4.979-10.732,4.896-1.231-2.443c14.644-11.313,48.879-9.603,69.216,3.459
		c9.469,6.082,21.45,19.388,26.626,29.568c6.568,12.923,17.657,22.999,36.733,33.381c28.375,15.441,32.776,23.034,19.509,33.652
		c-5.422,4.339-6.197,7.813-2.533,11.347c2.904,2.801,5.281,12.219,5.281,20.928c0,8.708,2.28,17.193,5.066,18.854
		c17.563,10.468-22.4,52.298-90.072,94.28c-62.255,38.62-143.704,53.683-203.167,37.573L280.896,309.696z M310.669,292.661
		c-11.703-11.285-13.226-33.141-3.229-46.325c7.285-9.606,53.895-15.926,53.895-7.308c0,2.458-3.42,3.203-7.6,1.656
		c-5.02-1.857-7.6,0.171-7.6,5.973c0,8.323-0.361,8.309-6.867-0.271c-8.609-11.352-21.584-7.17-29.457,9.494
		c-7.365,15.587,0.759,35.096,17.281,41.498c8.739,3.387,9.348,4.507,2.575,4.743C324.792,302.293,316.241,298.035,310.669,292.661
		L310.669,292.661z M343.929,291.228c1.902-4.818,4.734-7.529,6.295-6.025s0.004,5.446-3.459,8.761
		C341.761,298.754,341.179,298.192,343.929,291.228L343.929,291.228z M365.756,284.111c-6.042-7.43-5.958-7.836,0.646-3.1
		c4.181,2.998,11.021,6.673,15.2,8.164c6.357,2.27,6.252,2.776-0.646,3.1C376.421,292.487,369.581,288.813,365.756,284.111z
		 M409.565,277.853c1.775-2.771-3.748-16.956-12.274-31.524c-8.526-14.567-13.687-27.57-11.466-28.894
		c2.22-1.323,10.728,9.558,18.906,24.179c8.18,14.621,16.011,26.578,17.404,26.571c1.394-0.008,8.804-3.167,16.467-7.022
		c7.663-3.854,13.934-4.991,13.934-2.526s-9.548,8.931-21.219,14.367C406.987,284.339,405.146,284.75,409.565,277.853
		L409.565,277.853z M206.806,253.317c-12.396-11.713-14.165-15.931-9.616-22.928c3.066-4.717,10.346-9.262,16.177-10.102
		c6.863-0.987,9.61-4.021,7.787-8.602c-1.93-4.85,0.152-6.632,6.613-5.662c25.036,3.757,28.871,20.247,10.696,45.99
		c-6.27,8.881-12.54,16.036-13.934,15.901C223.135,267.78,215.16,261.211,206.806,253.317L206.806,253.317z M232.855,246.18
		c3.37-8.469-6.451-21.923-16.004-21.923c-9.242,0-13.789,14.704-6.989,22.604C217.505,255.742,229.188,255.396,232.855,246.18
		L232.855,246.18z M242.468,215.683c-2.77-6.962-3.988-7.153-7.788-1.225c-2.799,4.367-2.286,9.605,1.354,13.835
		C243.14,236.55,247.428,228.145,242.468,215.683L242.468,215.683z M382.3,253.41c-6.578-5.285-9.782-9.609-7.118-9.609
		c2.663,0,8.97,4.397,14.013,9.771C400.782,265.919,397.783,265.847,382.3,253.41L382.3,253.41z M361.328,253.284
		c0-2.846,2.28-3.815,5.066-2.154c2.786,1.66,5.067,3.988,5.067,5.174c0,1.185-2.281,2.154-5.067,2.154
		S361.328,256.13,361.328,253.284z M423.093,245.022c2.125-10.64,25.082-11.627,28.38-1.222c1.874,5.915,1.027,6.15-4.391,1.222
		c-9.203-8.371-16.531-7.683-12.988,1.222c1.815,4.562-0.033,7.328-4.896,7.328C424.484,253.572,422.063,250.18,423.093,245.022
		L423.093,245.022z M151.429,216.582c-11.103-10.707-10.005-15.163,1.304-5.294c10.958,9.563,29.015,10.593,34.703,1.979
		c2.219-3.359,4.063-16.904,4.099-30.1c0.044-16.074,2.389-24.749,7.104-26.284c4.821-1.569,5.718-0.23,2.846,4.25
		c-2.306,3.599-3.584,16.092-2.84,27.763c0.745,11.671-1.385,24.402-4.733,28.292C185.85,226.556,161.411,226.208,151.429,216.582
		L151.429,216.582z M483.245,205.017c-5.745-5.539-10.291-12.82-10.102-16.179c0.188-3.359,2.839-1.113,5.89,4.991
		c6.335,12.677,27.295,19.597,35.47,11.713c8.5-8.196-5.247-22.357-14.509-14.945c-8.227,6.583-9.4-1.085-1.354-8.844
		c8.645-8.336,28.001,12.115,21.271,22.475C512.276,215.977,494.997,216.349,483.245,205.017L483.245,205.017z M164.997,206.367
		c-3.483-1.355-6.069-7.228-5.746-13.05c0.496-8.92,0.967-9.169,2.996-1.582c1.646,6.153,5.561,8.208,12.369,6.491
		c8.141-2.053,8.869-1.243,3.984,4.433c-3.287,3.819-6.268,6.771-6.623,6.559S168.48,207.722,164.997,206.367L164.997,206.367z
		 M138.797,194.322c-0.22-4.373,3.59-10.969,8.466-14.656c7.705-5.827,8.125-5.745,3.214,0.623
		c-3.109,4.03-6.919,10.626-8.466,14.656C139.657,201.076,139.131,200.974,138.797,194.322L138.797,194.322z M102.284,186.395
		c-6.302-7.749-6.123-7.922,1.913-1.845c4.877,3.688,8.867,7.536,8.867,8.551C113.063,197.122,108.903,194.534,102.284,186.395
		L102.284,186.395z M171.656,181.72c-2.75-6.963-2.168-7.524,2.836-2.735c3.463,3.314,5.02,7.257,3.459,8.761
		C176.392,189.251,173.559,186.539,171.656,181.72L171.656,181.72z M120.814,180.523c-1.219-1.901,9.946-15.04,24.811-29.196
		c14.865-14.155,27.91-23.874,28.988-21.596C177.082,134.946,123.827,185.224,120.814,180.523L120.814,180.523z M212.566,177.845
		c1.604-4.031,3.813-7.329,4.908-7.329s1.991,3.298,1.991,7.329c0,4.03-2.208,7.328-4.908,7.328S210.962,181.876,212.566,177.845z
		 M92.862,166.677c-0.046-6.883,8.683-19.383,22.726-32.543c17.574-16.469,22.916-25.107,23.305-37.682
		c0.469-15.134,0.785-15.431,4.37-4.101c3.149,9.954,4.521,10.738,7.41,4.235c1.95-4.39-0.004-16.481-4.342-26.872l-7.888-18.892
		l10.17,11.61c23.251,26.544,16.625,51.396-20.358,76.364c-12.54,8.466-25.616,20.717-29.059,27.223l-6.259,11.831L92.862,166.677
		L92.862,166.677z M540.982,165.313c-1.837-2.866-2.253-6.259-0.925-7.539c1.328-1.281,3.765,1.063,5.415,5.211
		C548.898,171.594,545.979,173.108,540.982,165.313z M52.254,138.489c0-8.326-2.157-10.827-7.6-8.813
		c-5.704,2.11-7.6-0.807-7.6-11.69c0-13.072,1.331-14.257,13.496-12.015c10.762,1.983,12.876,0.929,10.435-5.206
		c-1.684-4.231,0.223-10.322,4.237-13.535c6.038-4.832,7.299-3.629,7.299,6.972c0,14.729,8.483,16.708,18.28,4.263
		c6.394-8.122,6.739-8.113,6.892,0.182c0.088,4.803-10.1,18.349-22.639,30.101C53.873,148.596,52.253,149.289,52.254,138.489
		L52.254,138.489z M54.788,116.786c1.723-2.688-0.558-4.886-5.066-4.886s-6.789,2.198-5.067,4.886
		c1.723,2.688,4.002,4.886,5.067,4.886S53.065,119.473,54.788,116.786z M67.454,143.556c0-1.179,8.838-6.491,19.642-11.806
		c29.302-14.414,32.238-26.617,14.942-62.097c-10.697-21.945-10.742-22.79-1.565-29.261c5.198-3.665,11.865-6.49,14.815-6.278
		c2.951,0.213,2.515,1.495-0.968,2.851c-8.396,3.267-7.892,18.913,1.441,44.753c10.078,27.902,2.631,43.262-26.775,55.223
		c-11.843,4.817-21.534,7.794-21.534,6.615H67.454z M37.641,74.794c4.502-5.118,9.816-15.89,11.807-23.936
		c4.171-16.853,12.305-27.854,18.057-24.426c2.183,1.301,11.345-0.625,20.359-4.28c10.835-4.393,22.311-5.357,33.858-2.847
		c22.154,4.818,28.955,10.688,7.616,6.573c-23.286-4.491-40.381,1.294-48.653,16.465l-7.292,13.372l-3.639-13.899
		C65.458,25.405,57.525,33.184,57.4,53.932c-0.052,8.641-4.659,15.717-14.011,21.521C29.767,83.908,29.639,83.892,37.641,74.794
		L37.641,74.794z M65.137,68.268c-3.46-5.4,4.532-11.23,9.21-6.72c4.817,4.646,3.92,11.268-1.527,11.268
		C70.198,72.816,66.741,70.769,65.137,68.268L65.137,68.268z"/>
	<path id="path3375" fill="#F16132" d="M280.896,309.696c-45.158-12.233-95.376-40.865-132.024-75.272
		c-18.833-17.682-22.318-21.823-7.746-9.203c70.071,60.684,130.152,84.288,206.264,81.041
		c71.567-3.056,123.616-26.763,193.752-88.249c24.728-21.679,29.226-27.887,24.325-33.58
		c-10.398-12.083-17.813-53.105-11.022-60.994c6.977-8.105,8.452-6.351-22.726-27.032c-16.775-11.128-26.527-21.793-30.407-33.258
		c-10.44-30.85-54.88-48.474-85.849-34.048c-10.689,4.979-10.732,4.896-1.231-2.443c14.644-11.313,48.879-9.603,69.216,3.459
		c9.469,6.082,21.45,19.388,26.626,29.568c6.568,12.923,17.657,22.999,36.733,33.381c28.375,15.441,32.776,23.034,19.509,33.652
		c-5.422,4.339-6.197,7.813-2.533,11.347c2.904,2.801,5.281,12.219,5.281,20.928c0,8.708,2.28,17.193,5.066,18.854
		c17.563,10.468-22.4,52.298-90.072,94.28c-62.255,38.62-143.704,53.683-203.167,37.573L280.896,309.696z M310.669,292.661
		c-11.703-11.285-13.226-33.141-3.229-46.325c7.285-9.606,53.895-15.926,53.895-7.308c0,2.458-3.42,3.203-7.6,1.656
		c-5.02-1.857-7.6,0.171-7.6,5.973c0,8.323-0.361,8.309-6.867-0.271c-8.609-11.352-21.584-7.17-29.457,9.494
		c-7.365,15.587,0.759,35.096,17.281,41.498c8.739,3.387,9.348,4.507,2.575,4.743C324.792,302.293,316.241,298.035,310.669,292.661
		L310.669,292.661z M343.929,291.228c1.902-4.818,4.734-7.529,6.295-6.025s0.004,5.446-3.459,8.761
		C341.761,298.754,341.179,298.192,343.929,291.228L343.929,291.228z M365.756,284.111c-6.042-7.43-5.958-7.836,0.646-3.1
		c4.181,2.998,11.021,6.673,15.2,8.164c6.357,2.27,6.252,2.776-0.646,3.1C376.421,292.487,369.581,288.813,365.756,284.111z
		 M382.308,253.413c-6.578-5.285-9.782-9.609-7.118-9.609c2.663,0,8.97,4.397,14.014,9.771
		C400.79,265.922,397.791,265.85,382.308,253.413L382.308,253.413z M361.336,253.287c0-2.846,2.28-3.815,5.067-2.155
		c2.786,1.661,5.066,3.989,5.066,5.175c0,1.185-2.28,2.154-5.066,2.154C363.616,258.461,361.336,256.133,361.336,253.287z
		 M151.424,216.583c-11.103-10.707-10.005-15.163,1.304-5.294c10.958,9.563,29.015,10.592,34.703,1.979
		c2.219-3.359,4.063-16.904,4.099-30.1c0.044-16.074,2.389-24.748,7.104-26.283c4.821-1.57,5.717-0.231,2.846,4.25
		c-2.306,3.598-3.584,16.091-2.84,27.762c0.745,11.672-1.385,24.403-4.732,28.292C185.845,226.556,161.406,226.208,151.424,216.583
		L151.424,216.583z M483.24,205.017c-5.745-5.539-10.291-12.819-10.102-16.179c0.188-3.359,2.839-1.112,5.89,4.992
		c6.335,12.676,27.295,19.597,35.47,11.713c8.5-8.196-5.247-22.358-14.509-14.946c-8.227,6.584-9.4-1.085-1.354-8.844
		c8.645-8.336,28.001,12.116,21.271,22.476C512.271,215.977,494.992,216.349,483.24,205.017L483.24,205.017z M164.992,206.367
		c-3.483-1.354-6.069-7.228-5.746-13.049c0.495-8.92,0.966-9.17,2.995-1.583c1.646,6.153,5.561,8.208,12.369,6.492
		c8.141-2.053,8.869-1.243,3.984,4.432c-3.287,3.819-6.268,6.771-6.623,6.559C171.616,209.006,168.476,207.723,164.992,206.367
		L164.992,206.367z M138.792,194.323c-0.22-4.374,3.59-10.969,8.466-14.657c7.705-5.827,8.125-5.745,3.214,0.623
		c-3.109,4.031-6.919,10.627-8.466,14.657C139.652,201.076,139.126,200.974,138.792,194.323L138.792,194.323z M102.279,186.396
		c-6.302-7.749-6.123-7.922,1.913-1.845c4.876,3.688,8.866,7.535,8.866,8.55C113.059,197.123,108.898,194.535,102.279,186.396
		L102.279,186.396z M171.651,181.72c-2.75-6.963-2.168-7.524,2.836-2.734c3.463,3.313,5.02,7.256,3.459,8.761
		C176.387,189.251,173.554,186.539,171.651,181.72L171.651,181.72z M120.81,180.524c-1.219-1.902,9.946-15.04,24.811-29.196
		c14.865-14.156,27.91-23.875,28.988-21.596C177.077,134.947,123.822,185.224,120.81,180.524L120.81,180.524z M212.562,177.845
		c1.604-4.03,3.813-7.328,4.908-7.328s1.991,3.298,1.991,7.328c0,4.031-2.208,7.329-4.908,7.329S210.958,181.877,212.562,177.845z
		 M92.857,166.677c-0.046-6.883,8.684-19.382,22.726-32.542c17.574-16.47,22.916-25.108,23.305-37.683
		c0.468-15.134,0.785-15.431,4.369-4.1c3.149,9.953,4.521,10.737,7.41,4.234c1.95-4.389-0.004-16.48-4.342-26.871l-7.888-18.893
		l10.17,11.61c23.251,26.545,16.625,51.396-20.358,76.364c-12.54,8.467-25.616,20.717-29.059,27.224l-6.259,11.83L92.857,166.677
		L92.857,166.677z M540.978,165.313c-1.837-2.865-2.253-6.258-0.925-7.539c1.328-1.28,3.765,1.064,5.415,5.211
		C548.894,171.594,545.974,173.108,540.978,165.313z M52.25,138.49c0-8.327-2.157-10.827-7.6-8.813c-5.704,2.11-7.6-0.806-7.6-11.69
		c0-13.071,1.331-14.257,13.496-12.014c10.761,1.983,12.876,0.929,10.434-5.206c-1.684-4.232,0.223-10.323,4.237-13.535
		c6.038-4.833,7.299-3.629,7.299,6.971c0,14.729,8.483,16.708,18.28,4.263c6.394-8.121,6.739-8.112,6.892,0.183
		c0.088,4.803-10.099,18.348-22.639,30.1C53.868,148.597,52.249,149.289,52.25,138.49L52.25,138.49z M54.783,116.787
		c1.722-2.688-0.558-4.886-5.067-4.886s-6.789,2.198-5.066,4.886c1.722,2.687,4.002,4.885,5.066,4.885
		S53.061,119.473,54.783,116.787z M67.449,143.556c0-1.179,8.838-6.491,19.642-11.806c29.302-14.414,32.238-26.617,14.942-62.097
		c-10.697-21.945-10.742-22.789-1.565-29.261c5.198-3.665,11.865-6.489,14.815-6.277c2.951,0.212,2.515,1.494-0.968,2.85
		c-8.396,3.267-7.892,18.914,1.441,44.753c10.078,27.902,2.631,43.263-26.775,55.224C77.138,141.759,67.448,144.736,67.449,143.556
		L67.449,143.556z M37.636,74.795c4.502-5.119,9.816-15.89,11.807-23.937C53.614,34.007,61.748,23.004,67.5,26.432
		c2.183,1.302,11.345-0.625,20.359-4.279c10.835-4.394,22.311-5.358,33.858-2.847c22.154,4.817,28.955,10.688,7.616,6.572
		c-23.286-4.491-40.381,1.294-48.653,16.465l-7.291,13.373l-3.64-13.9c-4.296-16.411-12.229-8.631-12.354,12.117
		c-0.052,8.641-4.659,15.717-14.011,21.521C29.763,83.908,29.635,83.892,37.636,74.795L37.636,74.795z M65.133,68.268
		c-3.461-5.399,4.531-11.23,9.21-6.719c4.817,4.646,3.92,11.268-1.527,11.268C70.193,72.817,66.736,70.77,65.133,68.268
		L65.133,68.268z"/>
	<path id="path3373" fill="#5EBE5A" d="M280.896,309.696c-45.158-12.233-95.376-40.865-132.024-75.272
		c-18.833-17.682-22.318-21.823-7.746-9.203c70.071,60.684,130.152,84.288,206.264,81.041
		c71.567-3.056,123.616-26.763,193.752-88.249c24.728-21.679,29.226-27.887,24.325-33.58
		c-10.398-12.083-17.813-53.105-11.022-60.994c6.977-8.105,8.452-6.351-22.726-27.032c-16.775-11.128-26.527-21.793-30.407-33.258
		c-10.44-30.85-54.88-48.474-85.849-34.048c-10.689,4.979-10.732,4.896-1.231-2.443c14.644-11.313,48.879-9.603,69.216,3.459
		c9.469,6.082,21.45,19.388,26.626,29.568c6.568,12.923,17.657,22.999,36.733,33.381c28.375,15.441,32.776,23.034,19.509,33.652
		c-5.422,4.339-6.197,7.813-2.533,11.347c2.904,2.801,5.281,12.219,5.281,20.928c0,8.708,2.28,17.193,5.066,18.854
		c17.563,10.468-22.4,52.298-90.072,94.28c-62.255,38.62-143.704,53.683-203.167,37.573L280.896,309.696z M310.669,292.661
		c-11.703-11.285-13.226-33.141-3.229-46.325c7.285-9.606,53.895-15.926,53.895-7.308c0,2.458-3.42,3.203-7.6,1.656
		c-5.02-1.857-7.6,0.171-7.6,5.973c0,8.323-0.361,8.309-6.867-0.271c-8.609-11.352-21.584-7.17-29.457,9.494
		c-7.365,15.587,0.759,35.096,17.281,41.498c8.739,3.387,9.348,4.507,2.575,4.743C324.792,302.293,316.241,298.035,310.669,292.661
		L310.669,292.661z M343.929,291.228c1.902-4.818,4.734-7.529,6.295-6.025s0.004,5.446-3.459,8.761
		C341.761,298.754,341.179,298.192,343.929,291.228L343.929,291.228z M151.432,216.581c-11.104-10.707-10.006-15.163,1.304-5.294
		c10.958,9.563,29.014,10.592,34.703,1.979c2.218-3.359,4.063-16.904,4.099-30.1c0.044-16.074,2.388-24.748,7.104-26.283
		c4.821-1.57,5.718-0.231,2.846,4.25c-2.306,3.598-3.584,16.091-2.839,27.762c0.744,11.672-1.386,24.403-4.733,28.292
		C185.853,226.554,161.414,226.206,151.432,216.581L151.432,216.581z M483.248,205.015c-5.745-5.539-10.29-12.819-10.102-16.179
		s2.839-1.112,5.89,4.992c6.336,12.676,27.295,19.597,35.47,11.713c8.5-8.196-5.247-22.358-14.509-14.946
		c-8.227,6.584-9.4-1.085-1.354-8.844c8.646-8.336,28.001,12.116,21.271,22.476C512.28,215.975,495,216.347,483.248,205.015
		L483.248,205.015z M165,206.365c-3.483-1.354-6.069-7.228-5.746-13.049c0.495-8.92,0.966-9.17,2.996-1.583
		c1.645,6.153,5.561,8.208,12.369,6.492c8.141-2.053,8.869-1.243,3.984,4.432c-3.288,3.819-6.268,6.771-6.623,6.559
		C171.625,209.004,168.483,207.721,165,206.365L165,206.365z M138.8,194.321c-0.22-4.374,3.59-10.969,8.467-14.657
		c7.705-5.827,8.125-5.745,3.213,0.623c-3.109,4.031-6.919,10.627-8.466,14.657C139.66,201.074,139.135,200.972,138.8,194.321
		L138.8,194.321z M102.287,186.394c-6.302-7.749-6.123-7.922,1.913-1.845c4.876,3.688,8.866,7.535,8.866,8.55
		C113.066,197.121,108.906,194.533,102.287,186.394L102.287,186.394z M171.659,181.719c-2.75-6.963-2.167-7.524,2.836-2.734
		c3.462,3.313,5.019,7.256,3.459,8.761C176.395,189.249,173.562,186.537,171.659,181.719L171.659,181.719z M212.568,177.844
		c1.604-4.03,3.813-7.328,4.908-7.328s1.991,3.298,1.991,7.328c0,4.031-2.208,7.329-4.908,7.329S210.964,181.875,212.568,177.844z
		 M92.864,166.668c-0.046-6.883,8.683-19.382,22.726-32.542c17.573-16.47,22.916-25.108,23.305-37.683
		c0.468-15.134,0.785-15.431,4.369-4.101c3.149,9.954,4.521,10.738,7.41,4.235c1.95-4.389-0.004-16.481-4.342-26.871l-7.888-18.893
		l10.17,11.61c23.251,26.544,16.625,51.396-20.358,76.364c-12.54,8.467-25.616,20.717-29.059,27.224l-6.258,11.83L92.864,166.668
		L92.864,166.668z M52.258,138.476c0-8.327-2.157-10.828-7.6-8.813c-5.704,2.11-7.6-0.807-7.6-11.69
		c0-13.071,1.331-14.257,13.496-12.014c10.762,1.983,12.876,0.929,10.435-5.206c-1.684-4.232,0.223-10.323,4.237-13.535
		c6.038-4.833,7.299-3.629,7.299,6.971c0,14.729,8.483,16.708,18.28,4.263c6.394-8.121,6.739-8.112,6.892,0.183
		c0.088,4.803-10.099,18.348-22.639,30.1C53.876,148.584,52.257,149.275,52.258,138.476L52.258,138.476z M54.792,116.772
		c1.722-2.687-0.558-4.885-5.067-4.885s-6.789,2.198-5.066,4.885c1.722,2.688,4.002,4.886,5.066,4.886S53.069,119.46,54.792,116.772
		z M37.761,74.778c4.567-5.118,9.843-16.3,11.726-24.847c1.883-8.548,7.07-18.441,11.526-21.986
		c7.217-5.739,7.458-5.276,2.208,4.228c-3.243,5.869-5.896,16.06-5.896,22.646c0,7.709-4.963,15.054-13.934,20.62
		C29.765,83.894,29.641,83.88,37.761,74.778L37.761,74.778z M65.142,68.253c-3.461-5.4,4.531-11.23,9.21-6.72
		c4.817,4.646,3.92,11.268-1.527,11.268C70.202,72.801,66.745,70.754,65.142,68.253L65.142,68.253z"/>
	<path id="path3371" fill="#5E5E5E" d="M280.896,309.696c-45.158-12.233-95.376-40.865-132.024-75.272
		c-18.833-17.682-22.318-21.823-7.746-9.203c70.071,60.684,130.152,84.288,206.264,81.041
		c71.567-3.056,123.616-26.763,193.752-88.249c24.728-21.679,29.226-27.887,24.325-33.58
		c-10.398-12.083-17.813-53.105-11.022-60.994c6.977-8.105,8.452-6.351-22.726-27.032c-16.775-11.128-26.527-21.793-30.407-33.258
		c-10.44-30.85-54.88-48.474-85.849-34.048c-10.689,4.979-10.732,4.896-1.231-2.443c14.644-11.313,48.879-9.603,69.216,3.459
		c9.469,6.082,21.45,19.388,26.626,29.568c6.568,12.923,17.657,22.999,36.733,33.381c28.375,15.441,32.776,23.034,19.509,33.652
		c-5.422,4.339-6.197,7.813-2.533,11.347c2.904,2.801,5.281,12.219,5.281,20.928c0,8.708,2.28,17.193,5.066,18.854
		c17.563,10.468-22.4,52.298-90.072,94.28c-62.255,38.62-143.704,53.683-203.167,37.573L280.896,309.696z M102.288,186.4
		c-6.302-7.749-6.123-7.922,1.913-1.845c4.876,3.688,8.866,7.535,8.866,8.551C113.067,197.127,108.907,194.539,102.288,186.4
		L102.288,186.4z M52.267,138.48c0-8.326-2.157-10.827-7.6-8.813c-5.704,2.111-7.6-0.806-7.6-11.689
		c0-13.072,1.331-14.257,13.496-12.015c10.762,1.983,12.876,0.929,10.434-5.206c-1.684-4.231,0.223-10.322,4.237-13.535
		c6.039-4.833,7.299-3.629,7.299,6.971c0,14.73,8.483,16.708,18.28,4.263c6.394-8.121,6.739-8.112,6.892,0.183
		c0.089,4.803-10.099,18.348-22.639,30.1C53.885,148.588,52.266,149.28,52.267,138.48L52.267,138.48z M54.8,116.777
		c1.722-2.688-0.558-4.886-5.067-4.886c-4.509,0-6.789,2.198-5.066,4.886c1.722,2.687,4.002,4.886,5.066,4.886
		C50.797,121.663,53.078,119.464,54.8,116.777z M37.77,74.782c4.566-5.118,9.843-16.3,11.726-24.847s7.069-18.44,11.526-21.985
		c7.216-5.739,7.458-5.276,2.208,4.227c-3.243,5.869-5.896,16.061-5.896,22.646c0,7.709-4.963,15.054-13.934,20.62
		C29.773,83.898,29.649,83.884,37.77,74.782L37.77,74.782z M65.149,68.257c-3.461-5.399,4.532-11.23,9.21-6.719
		c4.817,4.645,3.919,11.267-1.528,11.267C70.21,72.804,66.753,70.759,65.149,68.257L65.149,68.257z"/>
	<path id="path3369" fill="#0C0C0C" d="M335.048,313.753c3.658-1.412,8.027-1.238,9.711,0.386c1.684,1.623-1.309,2.777-6.649,2.565
		C332.207,316.469,331.007,315.312,335.048,313.753L335.048,313.753z M294.515,308.867c3.657-1.412,8.027-1.238,9.711,0.386
		c1.684,1.623-1.309,2.778-6.65,2.565C291.673,311.584,290.473,310.427,294.515,308.867L294.515,308.867z M391.73,304.842
		c55.503-15.029,114.264-49.973,159.144-94.632c14.551-14.48,18.442-21.392,14.665-26.037c-2.829-3.479-7.854-17.035-11.169-30.126
		c-5.208-20.57-4.898-25.002,2.275-32.646c7.817-8.329,7.165-9.404-11.172-18.429c-22.169-10.91-38.634-26.758-40.468-38.95
		c-0.688-4.574-9.322-15.461-19.188-24.194c-20.576-18.217-19.078-20.705,3.239-5.381c8.409,5.773,18.521,17.957,22.472,27.074
		c6.249,14.422,39.143,40.387,59.42,46.904c3.694,1.187,2.912,5.656-2.318,13.252c-7.104,10.318-7.125,14.552-0.207,42.433
		l7.685,30.971l-22.521,22.384c-43.816,43.549-122.232,86.864-166.92,92.2c-22.625,2.702-22.587,2.665,5.066-4.823L391.73,304.842z
		 M234.667,292.666c-4.18-2.604-5.32-4.736-2.534-4.736c2.787,0,8.487,2.132,12.667,4.736c4.18,2.604,5.32,4.736,2.534,4.736
		S238.846,295.27,234.667,292.666z M173.22,254.802c-6.302-7.749-6.123-7.922,1.913-1.845c4.877,3.688,8.867,7.536,8.867,8.551
		C184,265.529,179.839,262.94,173.22,254.802L173.22,254.802z M53.756,131.234c0.575-7.939,2.89-14.438,5.145-14.444
		s2.837-1.978,1.296-4.384c-1.542-2.405,0.53-5.607,4.605-7.115s8.825-0.532,10.555,2.169c2.046,3.191,5.647,2.908,10.295-0.813
		c5.207-4.167,7.149-4.218,7.149-0.188c0,3.042-4.903,9.357-10.895,14.033c-5.992,4.676-15.013,12.254-20.045,16.838
		C53.146,145.27,52.76,144.979,53.756,131.234L53.756,131.234z M62.401,92.352c0-2.688,2.415-4.886,5.366-4.886
		c2.951,0,3.957,2.198,2.234,4.886c-1.722,2.687-4.137,4.886-5.366,4.886C63.407,97.238,62.401,95.039,62.401,92.352z M53.444,53.26
		c0-9.404,1.043-13.252,2.317-8.55s1.274,12.397,0,17.1C54.487,66.513,53.444,62.666,53.444,53.26L53.444,53.26z M446.204,20.712
		c3.483-1.355,9.183-1.355,12.666,0s0.634,2.464-6.333,2.464S442.721,22.067,446.204,20.712L446.204,20.712z"/>
</g>
</svg>
